<svg xmlns="http://www.w3.org/2000/svg" xmlns:cc="http://web.resource.org/cc/" xmlns:svg="http://www.w3.org/2000/svg" xmlns:xlink="http://www.w3.org/1999/xlink" id="svg2" width="22" height="22" version="1.0"><defs id="defs4"><linearGradient id="linearGradient3537"><stop style="stop-color:#4e9a06;stop-opacity:1" id="stop3539" offset="0"/><stop id="stop3545" offset=".5" style="stop-color:#acf962;stop-opacity:1"/><stop style="stop-color:#4e9a06;stop-opacity:1" id="stop3541" offset="1"/></linearGradient><linearGradient id="linearGradient3505"><stop style="stop-color:#e5e5e2;stop-opacity:1" id="stop3507" offset="0"/><stop style="stop-color:#fff;stop-opacity:1" id="stop3509" offset="1"/></linearGradient><linearGradient id="linearGradient3497"><stop style="stop-color:#babdb6;stop-opacity:1" id="stop3499" offset="0"/><stop style="stop-color:#757872;stop-opacity:1" id="stop3501" offset="1"/></linearGradient><filter id="filter3467" width="1.307" height="3.013" x="-.154" y="-1.006"><feGaussianBlur id="feGaussianBlur3469" stdDeviation="1.17"/></filter><filter id="filter3493" width="1.119" height="1.778" x="-.059" y="-.389"><feGaussianBlur id="feGaussianBlur3495" stdDeviation=".452"/></filter><linearGradient id="linearGradient3503" x1="9.454" x2="10.014" y1="6.336" y2="18.921" gradientTransform="translate(1,1)" gradientUnits="userSpaceOnUse" xlink:href="#linearGradient3497"/><linearGradient id="linearGradient3511" x1="14.492" x2="14.492" y1="8.654" y2="15.764" gradientTransform="translate(1,1)" gradientUnits="userSpaceOnUse" xlink:href="#linearGradient3505"/><linearGradient id="linearGradient3543" x1="5.488" x2="5.029" y1="2.057" y2="4.909" gradientUnits="userSpaceOnUse" xlink:href="#linearGradient3537"/><linearGradient id="linearGradient3549" x1="5.488" x2="5.029" y1="2.057" y2="4.909" gradientUnits="userSpaceOnUse" xlink:href="#linearGradient3537"/><linearGradient id="linearGradient3553" x1="5.488" x2="5.029" y1="2.057" y2="4.909" gradientUnits="userSpaceOnUse" xlink:href="#linearGradient3537"/><linearGradient id="linearGradient3557" x1="5.488" x2="5.029" y1="2.057" y2="4.909" gradientUnits="userSpaceOnUse" xlink:href="#linearGradient3537"/><linearGradient id="linearGradient3561" x1="5.488" x2="5.029" y1="2.057" y2="4.909" gradientUnits="userSpaceOnUse" xlink:href="#linearGradient3537"/><linearGradient id="linearGradient3565" x1="5.488" x2="5.029" y1="2.057" y2="4.909" gradientUnits="userSpaceOnUse" xlink:href="#linearGradient3537"/></defs><metadata id="metadata7"/><g id="layer1"><g id="g3513" transform="translate(1,1)" style="opacity:.43434341"><rect style="opacity:.42424239;fill:#000;fill-opacity:1;stroke:none;stroke-width:1;stroke-miterlimit:4;stroke-dasharray:none;filter:url(#filter3493)" id="rect3471" width="18.269" height="2.79" x="1" y="17" rx="1.522" ry="1.723" transform="matrix(0.9163789,0,0,0.8099374,0.847444,3.4962296)"/><rect id="rect3333" width="18.269" height="2.79" x="1" y="17" rx="1.395" ry="1.395" style="opacity:.42424239;fill:#000;fill-opacity:1;stroke:none;stroke-width:1;stroke-miterlimit:4;stroke-dasharray:none;filter:url(#filter3467)"/></g><rect style="fill:url(#linearGradient3511);fill-opacity:1;fill-rule:evenodd;stroke:url(#linearGradient3503);stroke-width:.99999994;stroke-linecap:butt;stroke-linejoin:miter;stroke-miterlimit:4;stroke-dasharray:none;stroke-opacity:1" id="rect2362" width="15.028" height="15.921" x="3.5" y="3.5" rx="1.225" ry="1.215"/><rect style="opacity:.43434341;fill:#757872;fill-opacity:1;stroke:none;stroke-width:1;stroke-miterlimit:4;stroke-dasharray:none;stroke-opacity:1" id="rect3517" width="10" height="1.049" x="6" y="7.028" rx=".525" ry=".525"/><rect id="rect3519" width="10" height="1.049" x="6" y="9.028" rx=".525" ry=".525" style="opacity:.43434341;fill:#757872;fill-opacity:1;stroke:none;stroke-width:1;stroke-miterlimit:4;stroke-dasharray:none;stroke-opacity:1"/><rect style="opacity:.43434341;fill:#757872;fill-opacity:1;stroke:none;stroke-width:1;stroke-miterlimit:4;stroke-dasharray:none;stroke-opacity:1" id="rect3521" width="4" height="1.049" x="6" y="11.028" rx=".525" ry=".525"/><rect id="rect3523" width="10" height="1.049" x="6" y="14" rx=".525" ry=".525" style="opacity:.43434341;fill:#757872;fill-opacity:1;stroke:none;stroke-width:1;stroke-miterlimit:4;stroke-dasharray:none;stroke-opacity:1"/><rect style="opacity:.43434341;fill:#757872;fill-opacity:1;stroke:none;stroke-width:1;stroke-miterlimit:4;stroke-dasharray:none;stroke-opacity:1" id="rect3525" width="7" height="1.049" x="6" y="16" rx=".525" ry=".525"/><path style="fill:#fff;fill-rule:evenodd;stroke:none;stroke-width:1px;stroke-linecap:butt;stroke-linejoin:miter;stroke-opacity:1;fill-opacity:1" id="path3567" d="M 4,18 L 4,5 C 4.067658,4.3345725 4.2711745,3.8389681 5,4 L 17,4 C 17.491215,4.1359811 18.140502,4.3243727 18,5 L 18,14 L 17,5 L 5,5 L 4,18 z"/><path style="opacity:1;fill:none;fill-opacity:1;stroke:url(#linearGradient3543);stroke-width:1.90178537;stroke-miterlimit:4;stroke-dasharray:none;stroke-opacity:1" id="path3527" d="M 7.3834052,5.4095367 A 1.4375,2.25 0 1 1 7.9363953,2.9006187" transform="matrix(0.3330556,0,0,0.8301571,3.8567391,0.6604365)"/><path id="path3547" d="M 7.3834052,5.4095367 A 1.4375,2.25 0 1 1 7.9363953,2.9006187" transform="matrix(0.3330556,0,0,0.8301571,5.7930679,0.6604365)" style="opacity:1;fill:none;fill-opacity:1;stroke:url(#linearGradient3549);stroke-width:1.90178537;stroke-miterlimit:4;stroke-dasharray:none;stroke-opacity:1"/><path style="opacity:1;fill:none;fill-opacity:1;stroke:url(#linearGradient3553);stroke-width:1.90178537;stroke-miterlimit:4;stroke-dasharray:none;stroke-opacity:1" id="path3551" d="M 7.3834052,5.4095367 A 1.4375,2.25 0 1 1 7.9363953,2.9006187" transform="matrix(0.3330556,0,0,0.8301571,7.7930679,0.6604365)"/><path id="path3555" d="M 7.3834052,5.4095367 A 1.4375,2.25 0 1 1 7.9363953,2.9006187" transform="matrix(0.3330556,0,0,0.8301571,9.7930679,0.6604365)" style="opacity:1;fill:none;fill-opacity:1;stroke:url(#linearGradient3557);stroke-width:1.90178537;stroke-miterlimit:4;stroke-dasharray:none;stroke-opacity:1"/><path style="opacity:1;fill:none;fill-opacity:1;stroke:url(#linearGradient3561);stroke-width:1.90178537;stroke-miterlimit:4;stroke-dasharray:none;stroke-opacity:1" id="path3559" d="M 7.3834052,5.4095367 A 1.4375,2.25 0 1 1 7.9363953,2.9006187" transform="matrix(0.3330556,0,0,0.8301571,11.793068,0.6604365)"/><path id="path3563" d="M 7.3834052,5.4095367 A 1.4375,2.25 0 1 1 7.9363953,2.9006187" transform="matrix(0.3330556,0,0,0.8301571,13.730568,0.6604365)" style="opacity:1;fill:none;fill-opacity:1;stroke:url(#linearGradient3565);stroke-width:1.90178537;stroke-miterlimit:4;stroke-dasharray:none;stroke-opacity:1"/></g></svg>