<svg xmlns="http://www.w3.org/2000/svg" xmlns:svg="http://www.w3.org/2000/svg" xmlns:xlink="http://www.w3.org/1999/xlink" id="svg11300" width="22" height="22" version="1.0"><defs id="defs3"><linearGradient id="linearGradient8731"><stop style="stop-color:#000;stop-opacity:1" id="stop8733" offset="0"/><stop style="stop-color:#000;stop-opacity:0" id="stop8735" offset="1"/></linearGradient><linearGradient id="linearGradient6502"><stop style="stop-color:#fbec6b;stop-opacity:1" id="stop6504" offset="0"/><stop style="stop-color:#fbec6b;stop-opacity:0" id="stop6506" offset="1"/></linearGradient><linearGradient id="linearGradient6494"><stop style="stop-color:#fff283;stop-opacity:1" id="stop6496" offset="0"/><stop style="stop-color:#edd400;stop-opacity:1" id="stop6498" offset="1"/></linearGradient><linearGradient id="linearGradient6485"><stop style="stop-color:#c4a000;stop-opacity:1" id="stop6487" offset="0"/><stop style="stop-color:#c4a000;stop-opacity:0" id="stop6489" offset="1"/></linearGradient><linearGradient id="linearGradient6463"><stop style="stop-color:#ffe46a;stop-opacity:1" id="stop6465" offset="0"/><stop style="stop-color:#dab200;stop-opacity:1" id="stop6467" offset="1"/></linearGradient><linearGradient id="linearGradient6451"><stop style="stop-color:white;stop-opacity:1" id="stop6453" offset="0"/><stop style="stop-color:white;stop-opacity:0" id="stop6455" offset="1"/></linearGradient><linearGradient id="linearGradient6417"><stop style="stop-color:black;stop-opacity:1" id="stop6419" offset="0"/><stop style="stop-color:black;stop-opacity:0" id="stop6421" offset="1"/></linearGradient><linearGradient id="linearGradient6407"><stop style="stop-color:white;stop-opacity:1" id="stop6409" offset="0"/><stop style="stop-color:white;stop-opacity:0" id="stop6411" offset="1"/></linearGradient><linearGradient id="linearGradient6377"><stop style="stop-color:#fff27e;stop-opacity:1" id="stop6379" offset="0"/><stop style="stop-color:#edd400;stop-opacity:1" id="stop6381" offset="1"/></linearGradient><linearGradient id="linearGradient2526"><stop id="stop2528" offset="0" style="stop-color:#e7ebeb;stop-opacity:1"/><stop style="stop-color:#e6ebeb;stop-opacity:1" id="stop2534" offset=".5"/><stop id="stop2530" offset="1" style="stop-color:#fff;stop-opacity:1"/></linearGradient><linearGradient id="linearGradient5609"><stop style="stop-color:white;stop-opacity:1" id="stop5611" offset="0"/><stop style="stop-color:white;stop-opacity:0" id="stop5613" offset="1"/></linearGradient><linearGradient id="linearGradient2994"><stop style="stop-color:#000;stop-opacity:1" id="stop2996" offset="0"/><stop style="stop-color:#c9c9c9;stop-opacity:1" id="stop2998" offset="1"/></linearGradient><linearGradient id="linearGradient2974"><stop style="stop-color:#c1c1c1;stop-opacity:1" id="stop2976" offset="0"/><stop style="stop-color:#acacac;stop-opacity:1" id="stop2978" offset="1"/></linearGradient><linearGradient id="linearGradient2966"><stop style="stop-color:#ffd1d1;stop-opacity:1" id="stop2968" offset="0"/><stop id="stop3006" offset=".5" style="stop-color:#ff1d1d;stop-opacity:1"/><stop style="stop-color:#6f0000;stop-opacity:1" id="stop2970" offset="1"/></linearGradient><linearGradient id="linearGradient2919"><stop style="stop-color:#a3a4a0;stop-opacity:1" id="stop2921" offset="0"/><stop style="stop-color:#888a85;stop-opacity:1" id="stop2923" offset="1"/></linearGradient><linearGradient id="linearGradient2873"><stop style="stop-color:#939393;stop-opacity:1" id="stop2875" offset="0"/><stop style="stop-color:#424242;stop-opacity:1" id="stop2877" offset="1"/></linearGradient><linearGradient id="linearGradient2865"><stop style="stop-color:#000;stop-opacity:1" id="stop2867" offset="0"/><stop style="stop-color:#000;stop-opacity:0" id="stop2869" offset="1"/></linearGradient><linearGradient id="linearGradient2855"><stop style="stop-color:#dfdfdf;stop-opacity:1" id="stop2857" offset="0"/><stop style="stop-color:#fff;stop-opacity:1" id="stop2859" offset="1"/></linearGradient><radialGradient id="radialGradient2871" cx="23.563" cy="40.438" r="19.563" fx="23.563" fy="40.438" gradientTransform="matrix(1,0,0,0.348243,0,26.35543)" gradientUnits="userSpaceOnUse" xlink:href="#linearGradient2865"/><linearGradient id="linearGradient5615" x1="26.213" x2="26.13" y1="14.087" y2="67.031" gradientUnits="userSpaceOnUse" xlink:href="#linearGradient5609"/><radialGradient id="radialGradient6405" cx="45.15" cy="35.915" r="21.627" fx="45.15" fy="35.915" gradientTransform="matrix(1.669712,8.698511e-18,1.702451e-8,1.220484,25.97726,-16.50639)" gradientUnits="userSpaceOnUse" xlink:href="#linearGradient6377"/><radialGradient id="radialGradient6413" cx="43.875" cy="35.901" r="20.219" fx="43.875" fy="35.901" gradientTransform="matrix(10.88255,-6.454846e-8,-1.415492e-15,11.39737,-433.5968,-381.3811)" gradientUnits="userSpaceOnUse" xlink:href="#linearGradient6407"/><radialGradient id="radialGradient6423" cx="39.907" cy="31.781" r="5.259" fx="39.907" fy="31.781" gradientTransform="matrix(1,0,0,0.361345,56.21499,17.58983)" gradientUnits="userSpaceOnUse" xlink:href="#linearGradient6417"/><linearGradient id="linearGradient6457" x1="12.237" x2="13.21" y1="16.381" y2="-3.865" gradientTransform="matrix(1,0,0,0.962963,6.249979e-2,0.715274)" gradientUnits="userSpaceOnUse" xlink:href="#linearGradient6451"/><linearGradient id="linearGradient6491" x1="19.98" x2="18.953" y1="16.171" y2="15.773" gradientTransform="translate(0,2)" gradientUnits="userSpaceOnUse" xlink:href="#linearGradient6485"/><linearGradient id="linearGradient6508" x1="20.276" x2="17.547" y1="15.641" y2="14.934" gradientTransform="translate(0,2)" gradientUnits="userSpaceOnUse" xlink:href="#linearGradient6502"/><radialGradient id="radialGradient4651" cx="18.25" cy="16.833" r="10" fx="18.25" fy="16.833" gradientTransform="matrix(1.711724,0,0,1.375493,-12.98897,-5.261274)" gradientUnits="userSpaceOnUse" xlink:href="#linearGradient6494"/><linearGradient id="linearGradient3565" x1="5.488" x2="5.029" y1="2.057" y2="4.909" gradientUnits="userSpaceOnUse" xlink:href="#linearGradient3537"/><linearGradient id="linearGradient3561" x1="5.488" x2="5.029" y1="2.057" y2="4.909" gradientUnits="userSpaceOnUse" xlink:href="#linearGradient3537"/><linearGradient id="linearGradient3557" x1="5.488" x2="5.029" y1="2.057" y2="4.909" gradientUnits="userSpaceOnUse" xlink:href="#linearGradient3537"/><linearGradient id="linearGradient3553" x1="5.488" x2="5.029" y1="2.057" y2="4.909" gradientUnits="userSpaceOnUse" xlink:href="#linearGradient3537"/><linearGradient id="linearGradient3549" x1="5.488" x2="5.029" y1="2.057" y2="4.909" gradientUnits="userSpaceOnUse" xlink:href="#linearGradient3537"/><linearGradient id="linearGradient3543" x1="5.488" x2="5.029" y1="2.057" y2="4.909" gradientUnits="userSpaceOnUse" xlink:href="#linearGradient3537"/><linearGradient id="linearGradient3511" x1="14.492" x2="14.492" y1="8.654" y2="15.764" gradientTransform="translate(1,1)" gradientUnits="userSpaceOnUse" xlink:href="#linearGradient3505"/><linearGradient id="linearGradient3503" x1="9.454" x2="10.014" y1="6.336" y2="18.921" gradientTransform="translate(1,1)" gradientUnits="userSpaceOnUse" xlink:href="#linearGradient3497"/><linearGradient id="linearGradient3497"><stop id="stop3499" offset="0" style="stop-color:#babdb6;stop-opacity:1"/><stop id="stop3501" offset="1" style="stop-color:#757872;stop-opacity:1"/></linearGradient><linearGradient id="linearGradient3505"><stop id="stop3507" offset="0" style="stop-color:#e5e5e2;stop-opacity:1"/><stop id="stop3509" offset="1" style="stop-color:#fff;stop-opacity:1"/></linearGradient><linearGradient id="linearGradient3537"><stop id="stop3539" offset="0" style="stop-color:#4e9a06;stop-opacity:1"/><stop style="stop-color:#acf962;stop-opacity:1" id="stop3545" offset=".5"/><stop id="stop3541" offset="1" style="stop-color:#4e9a06;stop-opacity:1"/></linearGradient><radialGradient id="radialGradient278" cx="55" cy="125" r="14.375" fx="55" fy="125" gradientUnits="userSpaceOnUse" xlink:href="#linearGradient12512"/><linearGradient id="linearGradient12512"><stop id="stop12513" offset="0" style="stop-color:#fff;stop-opacity:1"/><stop id="stop12517" offset=".5" style="stop-color:#fff520;stop-opacity:.89108908"/><stop id="stop12514" offset="1" style="stop-color:#fff300;stop-opacity:0"/></linearGradient><linearGradient id="linearGradient8039" x1="14.492" x2="14.492" y1="8.654" y2="15.764" gradientTransform="translate(26.747848,0.35977)" gradientUnits="userSpaceOnUse" xlink:href="#linearGradient3505"/><linearGradient id="linearGradient8041" x1="9.454" x2="10.014" y1="6.336" y2="18.921" gradientTransform="translate(26.747848,0.35977)" gradientUnits="userSpaceOnUse" xlink:href="#linearGradient3497"/><radialGradient id="radialGradient8046" cx="55" cy="125" r="14.375" fx="55" fy="125" gradientUnits="userSpaceOnUse" xlink:href="#linearGradient12512"/><radialGradient id="radialGradient8737" cx="10.651" cy="-.672" r="5.701" fx="10.651" fy="-.672" gradientTransform="matrix(1.0582522,7.3152441e-8,-7.835192e-8,1,-0.6204318,-6.5454982e-7)" gradientUnits="userSpaceOnUse" xlink:href="#linearGradient8731"/></defs><metadata id="metadata4"/><g id="layer1"><g style="display:inline" id="g1197" transform="matrix(0.100012,0,0,0.14525,-1.020832,-8.262217)"><path style="opacity:.04787233;fill-rule:evenodd;stroke-width:3pt" id="path1196" d="M 32.706693,164.36026 C 22.319193,164.36026 13.956693,172.72276 13.956693,183.11026 C 13.956693,193.49776 22.319193,201.86026 32.706693,201.86026 L 205.20669,201.86026 C 215.59419,201.86026 223.95669,193.49776 223.95669,183.11026 C 223.95669,172.72276 215.59419,164.36026 205.20669,164.36026 L 32.706693,164.36026 z"/><path style="opacity:.04787233;fill-rule:evenodd;stroke-width:3pt" id="path1195" d="M 32.706693,165.61026 C 23.011693,165.61026 15.206693,173.41526 15.206693,183.11026 C 15.206693,192.80526 23.011693,200.61026 32.706693,200.61026 L 205.20669,200.61026 C 214.90169,200.61026 222.70669,192.80526 222.70669,183.11026 C 222.70669,173.41526 214.90169,165.61026 205.20669,165.61026 L 32.706693,165.61026 z"/><path style="opacity:.04787233;fill-rule:evenodd;stroke-width:3pt" id="path1194" d="M 32.706694,166.86026 C 23.704194,166.86026 16.456694,174.10776 16.456694,183.11026 C 16.456694,192.11276 23.704194,199.36026 32.706694,199.36026 L 205.20669,199.36026 C 214.20919,199.36026 221.45669,192.11276 221.45669,183.11026 C 221.45669,174.10776 214.20919,166.86026 205.20669,166.86026 L 32.706694,166.86026 z"/><path style="opacity:.04787233;fill-rule:evenodd;stroke-width:3pt" id="path1193" d="M 32.706694,168.11026 C 24.396694,168.11026 17.706694,174.80026 17.706694,183.11026 C 17.706694,191.42026 24.396694,198.11026 32.706694,198.11026 L 205.20669,198.11026 C 213.51669,198.11026 220.20669,191.42026 220.20669,183.11026 C 220.20669,174.80026 213.51669,168.11026 205.20669,168.11026 L 32.706694,168.11026 z"/><path style="opacity:.04787233;fill-rule:evenodd;stroke-width:3pt" id="path1192" d="M 32.707764,169.36026 C 25.090264,169.36026 18.957764,175.49276 18.957764,183.11026 C 18.957764,190.72776 25.090264,196.86026 32.707764,196.86026 L 205.20618,196.86026 C 212.82368,196.86026 218.95618,190.72776 218.95618,183.11026 C 218.95618,175.49276 212.82368,169.36026 205.20618,169.36026 L 32.707764,169.36026 z"/><path style="opacity:.04787233;fill-rule:evenodd;stroke-width:3pt" id="path1191" d="M 32.706694,170.61026 C 25.781694,170.61026 20.206694,176.18526 20.206694,183.11026 C 20.206694,190.03526 25.781694,195.61026 32.706694,195.61026 L 205.20669,195.61026 C 212.13169,195.61026 217.70669,190.03526 217.70669,183.11026 C 217.70669,176.18526 212.13169,170.61026 205.20669,170.61026 L 32.706694,170.61026 z"/><path style="opacity:.04787233;fill-rule:evenodd;stroke-width:3pt" id="path1190" d="M 32.706694,171.86026 C 26.474194,171.86026 21.456694,176.87776 21.456694,183.11026 C 21.456694,189.34276 26.474194,194.36026 32.706694,194.36026 L 205.20669,194.36026 C 211.43919,194.36026 216.45669,189.34276 216.45669,183.11026 C 216.45669,176.87776 211.43919,171.86026 205.20669,171.86026 L 32.706694,171.86026 z"/><path style="opacity:.04787233;fill-rule:evenodd;stroke-width:3pt" id="path1189" d="M 32.706694,173.11026 C 27.166694,173.11026 22.706694,177.57026 22.706694,183.11026 C 22.706694,188.65026 27.166694,193.11026 32.706694,193.11026 L 205.20669,193.11026 C 210.74669,193.11026 215.20669,188.65026 215.20669,183.11026 C 215.20669,177.57026 210.74669,173.11026 205.20669,173.11026 L 32.706694,173.11026 z"/></g><path style="color:#000;fill:url(#radialGradient4651);fill-opacity:1;fill-rule:evenodd;stroke:#c4a000;stroke-width:.99999982;stroke-linecap:butt;stroke-linejoin:miter;marker:none;marker-start:none;marker-mid:none;marker-end:none;stroke-miterlimit:4;stroke-dashoffset:0;stroke-opacity:1;visibility:visible;display:inline;overflow:visible" id="rect6447" d="M 2.2768064,2.4999995 L 19.723191,2.4999995 C 20.153541,2.4999995 20.499997,2.7666284 20.499997,3.097822 L 20.499997,18.416042 C 20.499997,18.747236 17.94445,19.5 16.364434,19.5 L 2.2768064,19.5 C 1.8464559,19.5 1.5000005,19.233372 1.5000005,18.902178 L 1.5000005,3.097822 C 1.5000005,2.7666284 1.8464559,2.4999995 2.2768064,2.4999995 z"/><path style="opacity:1;color:#000;fill:url(#linearGradient6508);fill-opacity:1;fill-rule:evenodd;stroke:url(#linearGradient6491);stroke-width:2;stroke-linecap:round;stroke-linejoin:round;marker:none;marker-start:none;marker-mid:none;marker-end:none;stroke-miterlimit:4;stroke-dasharray:none;stroke-dashoffset:0;stroke-opacity:1;visibility:visible;display:inline;overflow:visible" id="path6483" d="M 15.176777,19.044194 L 19.867418,13.585786 C 19.850622,14.941118 20.500475,16.734657 21.054602,17.784232 C 19.470741,18.45092 18.448214,18.92222 15.176777,19.044194 z"/><path style="opacity:.71348314;color:#000;fill:none;fill-opacity:1;fill-rule:evenodd;stroke:url(#linearGradient6457);stroke-width:.99999952;stroke-linecap:butt;stroke-linejoin:miter;marker:none;marker-start:none;marker-mid:none;marker-end:none;stroke-miterlimit:4;stroke-dashoffset:0;stroke-opacity:1;visibility:visible;display:inline;overflow:visible" id="path6449" d="M 2.4999998,3.4999964 L 2.4999998,18.499997 L 15.556349,18.499997 C 17.950338,18.576045 19.350115,18.105749 20.420495,17.395142 C 20.122192,16.54612 19.609886,15.901807 19.536612,14.586641 L 19.536612,3.4999964 L 2.4999998,3.4999964 z"/><path style="fill:url(#radialGradient8046);fill-opacity:1;fill-rule:nonzero;stroke:none;stroke-width:1.25000024;stroke-linecap:butt;stroke-linejoin:round;marker:none;marker-start:none;marker-mid:none;marker-end:none;stroke-miterlimit:4;stroke-dashoffset:0;stroke-opacity:1;visibility:visible;display:block" id="path12511" d="M 69.375,125 A 14.375,14.375 0 1 1 40.625,125 A 14.375,14.375 0 1 1 69.375,125 z" transform="matrix(0.3745963,0,0,0.3745963,-3.9509602,-41.439716)"/></g></svg>